<?xml version="1.0" encoding="utf-8" ?><svg xmlns="http://www.w3.org/2000/svg" xmlns:xlink="http://www.w3.org/1999/xlink" width="2305" height="1828" viewBox="0 0 2305 1828"><path fill="none" transform="matrix(4.37381 0 0 4.37321 0.00012207 3.05176e-05)" d="M0 0L527 0L527 418L0 418L0 0Z"/><path fill="#5CBDFE" transform="matrix(4.37381 0 0 4.37321 0.00012207 3.05176e-05)" d="M342.18 252.496C346.346 253.378 350.798 254.944 355.04 255.972L449.064 271.461L470.666 274.953C474.212 275.505 482.785 276.646 485.812 277.806C486.943 280.45 485.921 304.921 485.986 309.284C479.268 312.877 472.737 315.854 465.957 319.244C449.123 327.592 432.226 335.812 415.268 343.904C409.736 346.502 404.218 349.128 398.714 351.785C387.751 357.026 385.419 357.961 373.286 359.246C369.049 359.676 364.818 360.165 360.594 360.712C334.81 363.95 308.516 366.769 282.682 369.62C267.879 371.29 253.087 373.051 238.306 374.904C232.049 375.681 221.805 377.29 215.927 377.628C208.361 377.784 203.944 375.803 196.978 373.365L183.108 368.623L143.223 355.03C135.579 352.399 124.379 348.196 116.718 346.398C103.351 343.886 89.3685 343.194 76.0396 340.484C71.8297 339.628 66.0262 336.727 62.0876 334.909L47.4388 328.129C36.9983 323.302 26.1942 318.778 16.0373 313.529C15.6287 307.007 15.5973 300.36 15.6047 293.822C15.6086 290.415 15.393 285.415 15.7513 282.126C17.894 281.33 33.4438 281.542 36.7578 281.543C41.2308 281.595 45.7043 281.597 50.1774 281.551L55.8671 281.547L74.6648 281.561L78.4474 281.544C79.388 281.41 79.8211 281.504 80.3887 280.96C80.7503 277.975 80.4721 268.322 80.4558 264.849C82.6327 265.666 85.3154 266.515 87.0359 268.046C93.0941 267.053 100.952 266.688 107.158 266.173L141.212 263.23C145.253 262.874 155.757 262.2 159.013 261.435C160.461 266.367 164.043 277.884 166.536 281.758C172.009 281.199 178.76 281.646 184.384 281.529C197.644 281.255 211.607 281.972 224.807 281.508L228.035 281.396C228.102 279.506 227.986 277.391 227.924 275.484C225.99 267.892 222.548 262.783 215.885 258.89C214.241 257.929 211.844 256.66 210.415 255.583C218.442 254.887 227.595 255.459 235.768 255.598C255.598 255.941 275.419 256.714 295.216 257.916C295.756 263.795 295.849 269.706 295.496 275.599L295.58 281.544L325.045 281.553C329.5 281.556 335.923 281.767 340.21 281.53L342.178 281.499C342.385 278.701 342.236 273.513 342.246 270.574C342.265 264.658 342.362 258.386 342.18 252.496Z"/><path fill="#0061BA" transform="matrix(4.37381 0 0 4.37321 0.00012207 3.05176e-05)" d="M485.812 277.806C486.943 280.45 485.921 304.921 485.986 309.284C479.268 312.877 472.737 315.854 465.957 319.244C449.123 327.592 432.226 335.812 415.268 343.904C409.736 346.502 404.218 349.128 398.714 351.785C387.751 357.026 385.419 357.961 373.286 359.246C369.049 359.676 364.818 360.165 360.594 360.712C334.81 363.95 308.516 366.769 282.682 369.62C267.879 371.29 253.087 373.051 238.306 374.904C232.049 375.681 221.805 377.29 215.927 377.628C216.439 376.523 215.965 327.468 216.213 321.383C217.658 321.432 220.145 321.544 221.509 321.325C245.487 320.349 270.271 318.86 294.23 317.529L344.624 314.886C365.374 313.534 386.135 312.365 406.905 311.38C401.931 308.223 395.151 302.815 390.18 299.24C399.257 296.846 409.321 294.907 418.577 292.928C433.397 289.785 448.196 286.548 462.974 283.216C467.482 282.2 482.252 279.322 485.812 277.806Z"/><path fill="#0089FD" transform="matrix(4.37381 0 0 4.37321 0.00012207 3.05176e-05)" d="M150.733 304.291C157.494 304.883 166.669 307.638 173.38 309.498L201.868 317.412C208.668 319.275 214.461 321.422 221.509 321.325C220.145 321.544 217.658 321.432 216.213 321.383C215.965 327.468 216.439 376.523 215.927 377.628C208.361 377.784 203.944 375.803 196.978 373.365L183.108 368.623L143.223 355.03C135.579 352.399 124.379 348.196 116.718 346.398C117.3 342.949 138.29 319.561 141.766 315.31C143.633 313.027 150.143 306.767 150.733 304.291Z"/><path fill="#0061BA" transform="matrix(4.37381 0 0 4.37321 0.00012207 3.05176e-05)" d="M15.7513 282.126C19.0593 283.982 34.2237 288.764 38.688 290.225L57.2456 296.256C61.8398 297.796 66.7921 299.677 71.4797 300.691C74.4415 301.331 78.7974 301.421 81.8839 301.541C104.821 302.437 127.81 303.096 150.733 304.291C150.143 306.767 143.633 313.027 141.766 315.31C138.29 319.561 117.3 342.949 116.718 346.398C103.351 343.886 89.3685 343.194 76.0396 340.484C71.8297 339.628 66.0262 336.727 62.0876 334.909L47.4388 328.129C36.9983 323.302 26.1942 318.778 16.0373 313.529C15.6287 307.007 15.5973 300.36 15.6047 293.822C15.6086 290.415 15.393 285.415 15.7513 282.126Z"/><path fill="#5CBDFE" transform="matrix(4.37381 0 0 4.37321 0.00012207 3.05176e-05)" d="M210.415 255.583C218.442 254.887 227.595 255.459 235.768 255.598C255.598 255.941 275.419 256.714 295.216 257.916C295.756 263.795 295.849 269.706 295.496 275.599C289.186 275.187 280.356 275.36 273.838 275.336L227.924 275.484C225.99 267.892 222.548 262.783 215.885 258.89C214.241 257.929 211.844 256.66 210.415 255.583Z"/><path fill="#0061BA" transform="matrix(4.37381 0 0 4.37321 0.00012207 3.05176e-05)" d="M342.18 252.496C346.346 253.378 350.798 254.944 355.04 255.972L354.509 256.248C354.743 256.706 358.172 259.698 358.945 260.516C365.337 267.287 366.311 273.022 367.998 281.532C359.747 281.558 350.388 281.738 342.178 281.499C342.385 278.701 342.236 273.513 342.246 270.574C342.265 264.658 342.362 258.386 342.18 252.496Z"/><path fill="#0089FD" transform="matrix(4.37381 0 0 4.37321 0.00012207 3.05176e-05)" d="M227.924 275.484L273.838 275.336C280.356 275.36 289.186 275.187 295.496 275.599L295.58 281.544L224.807 281.508L228.035 281.396C228.102 279.506 227.986 277.391 227.924 275.484Z"/><path fill="#0061BA" transform="matrix(4.37381 0 0 4.37321 0.00012207 3.05176e-05)" d="M80.4558 264.849C82.6327 265.666 85.3154 266.515 87.0359 268.046C87.8807 269.218 89.0039 270.338 89.9556 271.454C92.6495 274.613 93.9633 277.657 95.2553 281.516L78.4474 281.544C79.388 281.41 79.8211 281.504 80.3887 280.96C80.7503 277.975 80.4721 268.322 80.4558 264.849Z"/><path fill="#0061BA" transform="matrix(4.37381 0 0 4.37321 0.00012207 3.05176e-05)" d="M318.792 124.425C318.475 110.113 318.81 95.4245 318.692 81.0839C318.664 77.706 318.517 62.796 319.103 60.4345C320.939 57.8249 331.708 57.6348 334.425 59.2246C335.931 61.3305 335.333 80.8153 335.319 84.8684C335.836 90.5318 335.52 101.187 335.513 107.263L335.479 149.969L335.808 281.347C337.101 281.38 338.978 281.374 340.21 281.53C335.923 281.767 329.5 281.556 325.045 281.553L295.58 281.544L295.496 275.599C295.849 269.706 295.756 263.795 295.216 257.916C295.374 254.343 295.197 249.82 295.166 246.128L294.95 221.597L294.657 138.061L294.617 114.402C294.612 110.78 294.444 105.157 294.685 101.729L294.585 76.0344C294.565 71.5052 294.351 64.5762 294.808 60.2662C297.662 58.7325 301.039 58.5861 304.237 58.4652C306.233 58.3899 309.187 58.2593 310.872 59.4249C311.595 59.9245 311.577 61.6647 311.622 62.5002C312.148 65.3028 311.839 74.8404 311.832 78.215L311.836 111.944L311.98 171.861C311.959 177.814 311.715 183.729 311.726 189.696C311.956 220.244 312.033 250.793 311.956 281.342L319.047 281.385C319.358 269.778 319.108 258.95 319.084 247.372L319.028 188.129L319.049 149.036C319.069 141.357 319.365 131.935 318.792 124.425Z"/><path fill="#0089FD" transform="matrix(4.37381 0 0 4.37321 0.00012207 3.05176e-05)" d="M294.808 60.2662C297.662 58.7325 301.039 58.5861 304.237 58.4652C306.233 58.3899 309.187 58.2593 310.872 59.4249C311.595 59.9245 311.577 61.6647 311.622 62.5002C311.495 82.9124 311.51 103.325 311.667 123.737C311.698 141.139 311.506 158.846 311.721 176.214C305.213 174.319 301.601 175.048 294.986 176.249C294.957 168.748 295.067 102.315 294.685 101.729L294.585 76.0344C294.565 71.5052 294.351 64.5762 294.808 60.2662Z"/><path fill="#0089FD" transform="matrix(4.37381 0 0 4.37321 0.00012207 3.05176e-05)" d="M318.792 124.425C318.475 110.113 318.81 95.4245 318.692 81.0839C318.664 77.706 318.517 62.796 319.103 60.4345C320.939 57.8249 331.708 57.6348 334.425 59.2246C335.931 61.3305 335.333 80.8153 335.319 84.8684C335.055 88.8516 335.219 94.6176 335.22 98.7276L335.234 124.221C330.747 123.314 326.972 122.738 322.393 123.567C321.2 123.783 319.728 124.267 318.792 124.425Z"/><path fill="#0061BA" transform="matrix(4.37381 0 0 4.37321 0.00012207 3.05176e-05)" d="M173.722 93.8093C174.319 97.8406 173.848 109.9 173.98 114.739C178.801 113.295 182.637 112.629 187.731 113.575C189.002 113.811 190.268 114.398 191.212 114.599L191.452 225.285L191.508 263.799C191.519 269.36 191.885 275.915 191.66 281.359L198.421 281.346C198.438 273.528 198.175 263.231 198.796 255.61C202.669 255.627 206.542 255.618 210.415 255.583C211.844 256.66 214.241 257.929 215.885 258.89C222.548 262.783 225.99 267.892 227.924 275.484C227.986 277.391 228.102 279.506 228.035 281.396L224.807 281.508C211.607 281.972 197.644 281.255 184.384 281.529C178.76 281.646 172.009 281.199 166.536 281.758C164.043 277.884 160.461 266.367 159.013 261.435C156.734 252.555 153.137 243.245 151.268 234.342C150.135 228.941 150.41 219.535 150.415 213.776C150.42 208.823 150.249 203.205 150.328 198.304C150.603 199.429 150.58 201.589 150.61 202.836C156.038 201.321 161.489 200.921 167.037 202.129C166.987 197.914 166.765 191.519 167.236 187.509C167.393 194.881 167.261 202.711 167.26 210.117L167.259 252.583C167.246 258.115 167.301 263.647 167.425 269.178C167.49 272.453 167.757 278.367 167.295 281.472C169.489 281.323 172.007 281.345 174.228 281.313L173.949 149.746C173.943 146.118 173.856 142.401 173.93 138.782C174.234 123.809 173.298 108.763 173.722 93.8093Z"/><path fill="#0089FD" transform="matrix(4.37381 0 0 4.37321 0.00012207 3.05176e-05)" d="M198.587 50.5737C203.716 48.3107 209.161 46.9189 214.415 49.4947C215.143 54.5053 215.117 68.1885 214.883 73.5659C215.156 75.3524 215.061 80.3207 215.06 82.3316L215.067 98.5103L215.004 169.235C214.984 183.497 215.435 207.285 214.85 221.109C214.7 224.669 201.395 248.626 198.571 252.744C198.184 244.308 198.465 233.795 198.468 225.231L198.477 174.568C198.307 153.106 198.297 131.643 198.449 110.182C198.419 97.9889 198.112 84.8084 198.408 72.6995C198.35 68.8404 197.999 54.0271 198.587 50.5737Z"/><path fill="#0061BA" transform="matrix(4.37381 0 0 4.37321 0.00012207 3.05176e-05)" d="M198.408 72.6995C198.821 74.8404 198.713 79.6109 198.707 81.9552L198.673 96.6939L198.657 163.267C204.533 161.877 208.811 161.73 214.821 163.305L214.807 101.128L214.773 82.7418C214.77 80.7679 214.642 75.3399 214.883 73.5659C215.156 75.3524 215.061 80.3207 215.06 82.3316L215.067 98.5103L215.004 169.235C214.984 183.497 215.435 207.285 214.85 221.109C214.7 224.669 201.395 248.626 198.571 252.744C198.184 244.308 198.465 233.795 198.468 225.231L198.477 174.568C198.307 153.106 198.297 131.643 198.449 110.182C198.419 97.9889 198.112 84.8084 198.408 72.6995Z"/><path fill="#0061BA" transform="matrix(4.37381 0 0 4.37321 0.00012207 3.05176e-05)" d="M271.618 54.7994C276.415 53.8127 282.624 53.9259 287.254 55.6581C287.847 61.2087 287.664 68.0691 287.66 73.7523L287.651 99.8144L287.689 121.805C287.705 125.658 287.871 131.662 287.507 135.381C286.896 143.544 287.236 156.321 287.301 164.725L287.498 216.755C287.556 227.309 287.996 241.243 287.21 251.603C283.604 246.47 272.754 226.347 271.494 220.595C270.585 216.449 271.251 211.518 271.283 207.271L271.306 184.673L271.236 124.61C271.238 115.901 271.042 106.665 271.244 98.0036C271.23 91.9317 271.178 85.86 271.088 79.7887C270.972 74.2208 270.339 59.5644 271.618 54.7994Z"/><path fill="#0089FD" transform="matrix(4.37381 0 0 4.37321 0.00012207 3.05176e-05)" d="M271.618 54.7994C276.415 53.8127 282.624 53.9259 287.254 55.6581C287.847 61.2087 287.664 68.0691 287.66 73.7523L287.651 99.8144L287.689 121.805C287.705 125.658 287.871 131.662 287.507 135.381C281.359 133.647 277.487 134.205 271.462 135.74C271.634 126.255 271.415 116.704 271.516 107.213C271.548 104.232 271.552 100.957 271.244 98.0036C271.23 91.9317 271.178 85.86 271.088 79.7887C270.972 74.2208 270.339 59.5644 271.618 54.7994Z"/><path fill="#0089FD" transform="matrix(4.37381 0 0 4.37321 0.00012207 3.05176e-05)" d="M247.828 61.3746C247.745 58.7722 247.292 53.3126 248.516 51.1878C251.235 48.9474 260.874 50.8028 263.987 52.1127C264.84 58.7071 264.512 74.0648 264.487 80.9383C264.723 85.9394 264.526 92.4176 264.526 97.5685L264.522 129.773L264.438 160.96C264.471 174.049 264.618 187.005 264.18 200.093C259.408 201.738 253.191 202.525 248.147 202.542C247.373 186.656 247.732 169.831 247.822 153.854C247.995 123.121 247.503 92.0731 247.828 61.3746Z"/><path fill="#0061BA" transform="matrix(4.37381 0 0 4.37321 0.00012207 3.05176e-05)" d="M247.828 61.3746C248.252 63.563 248.134 68.8187 248.129 71.2709L248.09 87.5008C248.064 109.124 247.79 131.439 248.102 153.004C255.717 151.662 256.688 151.992 264.222 153.06L264.253 102.34C264.25 99.2792 264.035 83.0857 264.487 80.9383C264.723 85.9394 264.526 92.4176 264.526 97.5685L264.522 129.773L264.438 160.96C264.471 174.049 264.618 187.005 264.18 200.093C259.408 201.738 253.191 202.525 248.147 202.542C247.373 186.656 247.732 169.831 247.822 153.854C247.995 123.121 247.503 92.0731 247.828 61.3746Z"/><path fill="#0089FD" transform="matrix(4.37381 0 0 4.37321 0.00012207 3.05176e-05)" d="M342.135 54.6152C345.629 52.7722 355.498 51.0642 358.551 53.8697C359.45 57.398 359.206 64.4639 359.195 68.3406L359.221 84.7667L359.514 160.34C361.408 174.669 354.186 183.091 342.199 189.776C342.677 178.678 341.878 166.594 342.277 155.37L342.046 87.4455L341.964 65.9994C341.962 63.2871 341.83 57.1473 342.135 54.6152Z"/><path fill="#0061BA" transform="matrix(4.37381 0 0 4.37321 0.00012207 3.05176e-05)" d="M342.277 155.37C342.516 158.841 342.542 164.539 342.461 168.073C349.831 166.071 352.143 165.634 359.523 167.755C359.478 165.492 359.335 162.544 359.514 160.34C361.408 174.669 354.186 183.091 342.199 189.776C342.677 178.678 341.878 166.594 342.277 155.37Z"/><path fill="#0089FD" transform="matrix(4.37381 0 0 4.37321 0.00012207 3.05176e-05)" d="M104.089 90.3916C107.501 86.8002 116.167 80.858 120.486 78.3679L120.451 190.865C120.291 193.3 120.403 195.871 120.455 198.319C117.369 198.034 113.258 197.383 110.294 197.581C108.643 197.692 106.094 198.59 104.233 198.804C103.864 187.433 104.132 174.69 104.133 163.242L104.089 90.3916Z"/><path fill="#0089FD" transform="matrix(4.37381 0 0 4.37321 0.00012207 3.05176e-05)" d="M372.323 50.8101C375.746 50.6374 379.383 51.0725 382.567 52.3692C383.211 56.7407 383.051 62.7401 383.063 67.2655L383.129 89.2026L383.299 131.751C383.308 135.008 383.774 153.58 382.795 155.069C381.271 156.346 378.326 156.598 376.305 156.93C373.479 157.451 369.414 157.472 366.621 157.132C365.954 152.806 366.132 146.871 366.123 142.356L366.079 120.883L365.967 78.008C365.947 70.3642 365.915 62.6951 365.933 55.0507C365.936 53.8423 365.836 53.0056 366.399 52.0704C368.087 50.9986 370.312 50.9903 372.323 50.8101Z"/><path fill="#0061BA" transform="matrix(4.37381 0 0 4.37321 0.00012207 3.05176e-05)" d="M55.8671 281.547C56.3355 280.326 56.2566 271.429 56.2654 269.535L56.176 231.8C56.1924 226.228 55.9538 219.971 56.3572 214.466C56.7234 209.469 58.2779 203.258 59.4172 198.311L64.4227 177.019C65.4785 172.542 69.5362 157.527 72.3545 154.345L72.6791 154.413C73.0456 156.936 72.8306 161.871 72.7924 164.587C72.7519 168.87 72.7395 173.153 72.7554 177.436L72.7584 246.413L72.7643 269.012C72.7648 270.695 72.5518 280.478 73.0921 281.292C73.7667 281.458 73.9718 281.491 74.6648 281.561L55.8671 281.547Z"/><path fill="#0089FD" transform="matrix(4.37381 0 0 4.37321 0.00012207 3.05176e-05)" d="M127.506 72.9714C131.996 69.8021 137.833 66.8006 143.325 66.1672C144.544 71.358 144.198 78.7591 144.175 84.2083L144.149 103.526C144.145 124.324 144.527 145.921 144.11 166.654C144.091 166.873 143.948 168.992 143.634 168.972C140.996 168.8 138.052 167.952 135.436 168.083C132.954 168.207 130.227 168.853 127.94 169.786C127.79 162.534 127.968 155.226 127.908 147.983C127.888 145.56 128.07 139.614 127.652 137.56C127.27 116.424 127.523 94.2129 127.506 72.9714Z"/><path fill="#0089FD" transform="matrix(4.37381 0 0 4.37321 0.00012207 3.05176e-05)" d="M80.5676 193.676L80.5368 151.422C80.5233 144.24 80.1454 134.193 80.8837 127.303C81.6052 120.571 89.125 108.88 93.8141 104.129C94.9675 102.944 96.1824 101.821 97.4539 100.763C98.0225 117.679 97.7539 135.03 97.7111 152.01C97.6738 166.829 98.2643 183.282 97.5555 197.975C96.2408 198.059 92.6809 197.398 90.9888 197.317C87.3407 197.143 84.4294 197.824 80.8613 198.464C80.8293 196.7 80.8224 195.412 80.5676 193.676Z"/><path fill="#0089FD" transform="matrix(4.37381 0 0 4.37321 0.00012207 3.05176e-05)" d="M223.337 120.631L223.288 84.905C223.273 80.4158 222.735 53.0227 223.67 50.5916C227.281 47.3437 235.165 47.6741 239.46 49.4503C239.883 55.1723 239.875 61.5958 239.781 67.366C239.484 85.6383 240.11 104.129 239.785 122.376C239.385 124.294 239.498 133.526 239.5 136.084C231.818 134.121 230.728 133.493 223.431 136.183C223.322 131.606 223.692 124.995 223.337 120.631Z"/><path fill="#0089FD" transform="matrix(4.37381 0 0 4.37321 0.00012207 3.05176e-05)" d="M150.082 61.8267C150.479 61.4768 150.888 61.1424 151.311 60.8242C155.528 57.6516 162.044 57.9011 166.985 58.5909C167.284 73.7603 167.364 88.9333 167.224 104.105C167.277 109.765 167.206 115.958 167.255 121.589C167.287 125.301 167.954 138.369 167.287 141.38C167.122 138.534 167.666 138.296 164.341 137.683C159.948 136.873 154.7 136.948 150.586 138.829C150.331 138.946 150.271 140.537 150.234 140.894C149.845 136.024 149.81 124.888 149.977 119.944C150.254 107.21 149.71 93.9438 149.864 81.1741C149.941 74.8145 149.581 68.1668 150.082 61.8267Z"/><path fill="#0061BA" transform="matrix(4.37381 0 0 4.37321 0.00012207 3.05176e-05)" d="M166.976 119.185C166.96 115.779 166.755 107.052 167.224 104.105C167.277 109.765 167.206 115.958 167.255 121.589C167.287 125.301 167.954 138.369 167.287 141.38C167.122 138.534 167.666 138.296 164.341 137.683C159.948 136.873 154.7 136.948 150.586 138.829C150.331 138.946 150.271 140.537 150.234 140.894C149.845 136.024 149.81 124.888 149.977 119.944C156.44 117.775 160.244 117.895 166.976 119.185Z"/><path fill="#0089FD" transform="matrix(4.37381 0 0 4.37321 0.00012207 3.05176e-05)" d="M437.696 73.9243C442.895 73.0104 449.368 74.0874 454.401 75.6972C454.897 82.3714 454.589 88.9048 454.669 95.556C454.816 107.721 454.466 120.246 454.786 132.378C455.015 135.693 454.754 140.386 454.639 143.792C451.02 144.417 441.577 146.177 438.507 144.477C436.945 142.785 437.406 135.445 437.41 132.796C437.493 123.609 437.504 114.421 437.443 105.233C437.316 95.4555 436.952 83.6213 437.696 73.9243Z"/><path fill="#0061BA" transform="matrix(4.37381 0 0 4.37321 0.00012207 3.05176e-05)" d="M437.41 132.796C440.873 132.345 444.249 131.935 447.751 132.315C449.231 132.475 453.732 134.532 454.594 133.721L454.786 132.378C455.015 135.693 454.754 140.386 454.639 143.792C451.02 144.417 441.577 146.177 438.507 144.477C436.945 142.785 437.406 135.445 437.41 132.796Z"/><path fill="#0061BA" transform="matrix(4.37381 0 0 4.37321 0.00012207 3.05176e-05)" d="M223.49 208.94C223.684 202.145 223.471 194.167 223.471 187.274L223.473 144.593C223.458 137.069 222.667 128.121 223.337 120.631C223.692 124.995 223.322 131.606 223.431 136.183C230.728 133.493 231.818 134.121 239.5 136.084C239.498 133.526 239.385 124.294 239.785 122.376C240.04 125.783 239.781 132.131 239.739 135.716C239.702 142.057 239.711 148.398 239.766 154.739C239.843 165.355 239.861 175.972 239.817 186.588C239.783 192.541 239.862 199.61 239.361 205.484C234.119 207.368 228.955 208.103 223.49 208.94Z"/><path fill="#0089FD" transform="matrix(4.37381 0 0 4.37321 0.00012207 3.05176e-05)" d="M150.234 140.894C150.271 140.537 150.331 138.946 150.586 138.829C154.7 136.948 159.948 136.873 164.341 137.683C167.666 138.296 167.122 138.534 167.287 141.38C166.955 156.472 167.793 172.783 167.236 187.509C166.765 191.519 166.987 197.914 167.037 202.129C161.489 200.921 156.038 201.321 150.61 202.836C150.58 201.589 150.603 199.429 150.328 198.304C150.038 188.105 150.246 177.481 150.303 167.275L150.234 140.894Z"/><path fill="#0089FD" transform="matrix(4.37381 0 0 4.37321 0.00012207 3.05176e-05)" d="M173.722 93.8093L173.65 67.8185C173.642 63.5788 173.532 59.1227 173.769 54.9104C173.972 51.2931 181.645 51.2355 184.197 51.3652C186.512 51.4829 188.563 52.0064 190.745 52.7386C191.318 58.4316 191.326 64.3294 191.196 70.054C190.859 84.8507 191.798 99.8342 191.212 114.599C190.268 114.398 189.002 113.811 187.731 113.575C182.637 112.629 178.801 113.295 173.98 114.739C173.848 109.9 174.319 97.8406 173.722 93.8093Z"/><path fill="#0061BA" transform="matrix(4.37381 0 0 4.37321 0.00012207 3.05176e-05)" d="M127.652 137.56C128.07 139.614 127.888 145.56 127.908 147.983C127.968 155.226 127.79 162.534 127.94 169.786C130.227 168.853 132.954 168.207 135.436 168.083C138.052 167.952 140.996 168.8 143.634 168.972C143.948 168.992 144.091 166.873 144.11 166.654C144.279 168.317 144.159 171.497 144.152 173.275L144.112 185.328L144.047 224.797C138.979 227.37 133.297 229.639 127.971 231.591C127.57 213.833 128.24 195.583 127.973 177.796C127.776 164.672 127.191 150.674 127.652 137.56Z"/><path fill="#0089FD" transform="matrix(4.37381 0 0 4.37321 0.00012207 3.05176e-05)" d="M462.111 86.553C467.364 86.8528 472.841 87.1467 477.615 89.5256C478.043 92.7068 478.435 142.44 477.671 144.279C477.465 144.774 477.143 144.83 476.692 145.044C473.246 145.32 464.826 146.393 462.156 144.585C460.691 141.173 461.113 130.347 461.1 125.925L461.08 101.326C461.089 97.1079 461.01 91.5495 461.266 87.2787C461.289 86.8942 461.671 86.8069 462.111 86.553Z"/><path fill="#0089FD" transform="matrix(4.37381 0 0 4.37321 0.00012207 3.05176e-05)" d="M389.653 54.787C393.423 55.1597 401.986 56.7849 404.965 59.2985C405.642 59.8146 405.874 60.6883 405.911 61.5241C406.163 67.2702 406.052 73.2162 406.06 78.9608L406.122 114.521C400.674 113.525 394.606 112.194 389.549 115.097C389.024 102.746 389.574 89.955 389.264 77.5534C389.079 70.1743 389.148 62.1106 389.653 54.787Z"/><path fill="#0061BA" transform="matrix(4.37381 0 0 4.37321 0.00012207 3.05176e-05)" d="M80.5676 193.676C80.8224 195.412 80.8293 196.7 80.8613 198.464C84.4294 197.824 87.3407 197.143 90.9888 197.317C92.6809 197.398 96.2408 198.059 97.5555 197.975C97.889 201.698 97.6019 211.309 97.603 215.719C97.5841 219.777 97.605 223.836 97.666 227.894C97.7789 233.732 98.1765 242.553 96.772 248.157C94.2039 250.498 84.2222 256.478 80.7753 258.648C80.5712 254.815 80.4795 250.855 80.544 247.017C80.8426 229.27 80.2572 211.408 80.5676 193.676Z"/><path fill="#0089FD" transform="matrix(4.37381 0 0 4.37321 0.00012207 3.05176e-05)" d="M413.201 101.316C415.125 98.812 427.05 98.7539 429.739 100.551C430.424 101.009 430.312 104.807 430.284 105.743C430.673 108.624 430.834 144.253 430.409 145.238C430.146 145.848 429.219 146.357 428.646 146.611C424.454 148.467 417.498 148.397 413.24 146.868C412.807 144.378 412.999 139.988 413.02 137.27L413.048 123.978L413.044 109.633C413.043 107.424 412.934 103.339 413.201 101.316Z"/><path fill="#0061BA" transform="matrix(4.37381 0 0 4.37321 0.00012207 3.05176e-05)" d="M413.24 146.868C412.807 144.378 412.999 139.988 413.02 137.27L413.048 123.978L413.044 109.633C413.043 107.424 412.934 103.339 413.201 101.316C413.446 105.398 413.318 110.437 413.316 114.626L413.311 136.815C419.814 136.118 423.717 135.832 430.337 137.316C430.222 130.465 430.18 123.614 430.209 116.762C430.205 114.188 430.04 107.996 430.284 105.743C430.673 108.624 430.834 144.253 430.409 145.238C430.146 145.848 429.219 146.357 428.646 146.611C424.454 148.467 417.498 148.397 413.24 146.868Z"/><path fill="#0061BA" transform="matrix(4.37381 0 0 4.37321 0.00012207 3.05176e-05)" d="M120.451 190.865C121.133 197.484 120.489 205.597 120.601 212.731C120.654 216.084 121.043 234.708 119.633 236.798C118.272 238.817 107.896 243.899 105.107 245.294C104.123 240.422 104.451 235.882 104.29 230.993C103.95 220.647 104.88 209.008 104.233 198.804C106.094 198.59 108.643 197.692 110.294 197.581C113.258 197.383 117.369 198.034 120.455 198.319C120.403 195.871 120.291 193.3 120.451 190.865Z"/><path fill="#0061BA" transform="matrix(4.37381 0 0 4.37321 0.00012207 3.05176e-05)" d="M36.9963 236.042C40.0749 233.309 46.0586 229.729 49.9003 228.091C50.1992 240.58 49.8617 253.208 49.9923 265.692C50.0236 268.686 49.8408 279.235 50.1774 281.551C45.7043 281.597 41.2308 281.595 36.7578 281.543C36.8648 272.185 36.5458 262.744 36.5753 253.396C36.59 248.729 36.4665 240.671 36.9963 236.042Z"/><path fill="#0089FD" transform="matrix(4.37381 0 0 4.37321 0.00012207 3.05176e-05)" d="M483.773 106.967C489.619 107.112 496.837 109.234 501.576 112.703C510.536 119.263 503.696 129.843 498.648 136.216C498.1 136.827 497.541 137.428 496.971 138.019C493.056 142.032 489.449 143.109 484.055 143.149C483.659 139.257 483.728 134.468 483.695 130.483C483.647 122.644 483.673 114.805 483.773 106.967Z"/><path fill="#0061BA" transform="matrix(4.37381 0 0 4.37321 0.00012207 3.05176e-05)" d="M389.549 115.097C394.606 112.194 400.674 113.525 406.122 114.521C406.199 124.095 406.744 139.274 405.945 148.423C401.461 150.1 394.855 150.477 390.057 149.845C389.019 139.111 390.275 126.12 389.549 115.097Z"/><path fill="#0089FD" transform="matrix(4.37381 0 0 4.37321 0.00012207 3.05176e-05)" d="M413.71 64.9789C419.521 64.9452 424.125 65.2889 429.689 67.2042C430.496 74.2912 430.761 83.5407 429.889 90.6133C425.674 90.8213 417.688 90.8232 413.707 90.3834C413.543 89.6074 413.407 88.8258 413.298 88.0401C412.96 85.4264 412.616 66.4284 413.71 64.9789Z"/></svg>
